# xmcd
#
# Track frame offsets: 
#        150
#        14118
#        25900
#        37063
#        50510
#        61971
#        75455
#        89456
#        101338
#        111286
#        122840
#        133071
#        145738
#        156545
#        167244
#        184388
#        207278
#        217807
#        229243
#        241979
#        251101
#        264451
#        274958
#        291914
#        301443
#        330655
#        340465
#        354291
#        365233
#
# Disc length: 5062 seconds
#
# Revision: 1
# Processed by: cddbd v1.5.2PL0 Copyright (c) Steve Scherf et al.
# Submitted via: ExactAudioCopyFreeDBPlugin 1.0
#
DISCID=ce13c41d
DTITLE=Various Artist - Plug It In! Turn It Up! (Pt 2 - Electric Blues 1954 -
DTITLE=1967)  CD 3
DYEAR=2010
DGENRE=Modern Electric Blues
TTITLE0=Pee Wee Crayton - Texas Hop
TTITLE1=Roy Milton and His Solid Senders - Junior Jives
TTITLE2=T-Bone Walker - Strolli´n with Bones
TTITLE3=Tiny Grimes Quintet - Tiny´s Boogie
TTITLE4=Elmore James - Hawaiian Boogie
TTITLE5=Jimmy and Walter - Easy
TTITLE6=Earl Hooker - The Huckle-Buck
TTITLE7=Young John Watson - Space Guitar
TTITLE8=Lightnin´ Hopkins - Hopkins´ Sky Hop
TTITLE9=Clarene 'Gatemouth' Brown with The Pluma Davis Orchestra - Oki
TTITLE9=e Dokie Stomp
TTITLE10=Bill Jennings Quintet - Big Boy
TTITLE11=Mickey Baker - Shake walkin´
TTITLE12=Jimmy Nolen - Strollin´ with Nolen
TTITLE13=Guitar Gable - Congo Mambo
TTITLE14=Jody Williams - Lucky you
TTITLE15=Johnny Heartsman - Johnny´s House Party (1 and 2)
TTITLE16=Chuck Berry - Guitar Boogie
TTITLE17=Cal Green - The Big Push
TTITLE18=Little Walter - Back Track
TTITLE19=Memphis Slim and The House Rockers - Steppin´ out
TTITLE20=Wild Jimmy Spruill - Hard Grind
TTITLE21=Royal Earl and The Swingin' Kools - Royal Earl Shuffle
TTITLE22=Ike and Tina´s King of Rhythm - Prancing
TTITLE23=Clarence Green - Red Light
TTITLE24=Freddie King - Remington ride
TTITLE25=Lonnie Mack - Wham !
TTITLE26=Albert Collins - Frosty
TTITLE27=Johnny Jones and The Beat Boys  - Finger Likin´
TTITLE28=Magic Sam - Looking Good
EXTD=
EXTT0=
EXTT1=
EXTT2=
EXTT3=
EXTT4=
EXTT5=
EXTT6=
EXTT7=
EXTT8=
EXTT9=
EXTT10=
EXTT11=
EXTT12=
EXTT13=
EXTT14=
EXTT15=
EXTT16=
EXTT17=
EXTT18=
EXTT19=
EXTT20=
EXTT21=
EXTT22=
EXTT23=
EXTT24=
EXTT25=
EXTT26=
EXTT27=
EXTT28=
PLAYORDER=
